HIERARCHY
ROOT hip
{
	OFFSET 0.000000 0.000000 0.000000 
	CHANNELS 6 Xposition Yposition Zposition Xrotation Zrotation Yrotation
	JOINT abdomen
	{
		OFFSET 0.000000 3.402643 0.000000 
		CHANNELS 3 Xrotation Zrotation Yrotation
		JOINT chest
		{
			OFFSET 0.000000 8.438565 -0.680529 
			CHANNELS 3 Xrotation Zrotation Yrotation
			JOINT neck
			{
				OFFSET 0.000000 10.207942 -0.272212 
				CHANNELS 3 Xrotation Zrotation Yrotation
				JOINT head
				{
					OFFSET 0.000000 3.130431 0.000000 
					CHANNELS 3 Xrotation Zrotation Yrotation
					End Site
					{
						OFFSET 0.000000 3.130435 0.000000 
					}
				}
			}
			JOINT lCollar
			{
				OFFSET 3.470700 6.669187 -0.816635 
				CHANNELS 3 Yrotation Zrotation Xrotation
				JOINT lShldr
				{
					OFFSET 3.198488 0.000000 0.000000 
					CHANNELS 3 Zrotation Yrotation Xrotation
					JOINT lForeArm
					{
						OFFSET 10.139888 0.000000 0.000000 
						CHANNELS 3 Yrotation Zrotation Xrotation
						JOINT lHand
						{
							OFFSET 8.370511 0.000000 0.000000 
							CHANNELS 3 Zrotation Yrotation Xrotation
							End Site
							{
								OFFSET 4.083176 0.000000 0.000000 
							}
						}
					}
				}
			}
			JOINT rCollar
			{
				OFFSET -3.470700 6.669187 -0.816635 
				CHANNELS 3 Yrotation Zrotation Xrotation
				JOINT rShldr
				{
					OFFSET -3.198488 0.000000 0.000000 
					CHANNELS 3 Zrotation Yrotation Xrotation
					JOINT rForeArm
					{
						OFFSET -10.139888 0.000000 0.000000 
						CHANNELS 3 Yrotation Zrotation Xrotation
						JOINT rHand
						{
							OFFSET -8.370511 0.000000 0.000000 
							CHANNELS 3 Zrotation Yrotation Xrotation
							End Site
							{
								OFFSET -4.083176 0.000000 0.000000 
							}
						}
					}
				}
			}
		}
	}
	JOINT lThigh
	{
		OFFSET 5.308129 -1.633274 1.361059 
		CHANNELS 3 Xrotation Zrotation Yrotation
		JOINT lShin
		{
			OFFSET -2.041588 -20.007561 0.000000 
			CHANNELS 3 Xrotation Zrotation Yrotation
			JOINT lFoot
			{
				OFFSET 0.000000 -19.190928 -1.224953 
				CHANNELS 3 Xrotation Yrotation Zrotation
				End Site
				{
					OFFSET 0.000000 -2.449906 4.627600 
				}
			}
		}
	}
	JOINT rThigh
	{
		OFFSET -5.308129 -1.633274 1.361059 
		CHANNELS 3 Xrotation Zrotation Yrotation
		JOINT rShin
		{
			OFFSET 2.041588 -20.007561 0.000000 
			CHANNELS 3 Xrotation Zrotation Yrotation
			JOINT rFoot
			{
				OFFSET 0.000000 -19.190928 -1.224953 
				CHANNELS 3 Xrotation Yrotation Zrotation
				End Site
				{
					OFFSET 0.000000 -2.449906 4.627600 
				}
			}
		}
	}
}
MOTION
Frames: 9
Frame Time: 0.033333
28.324135 37.387867 62.265949 4.663054 16.007290 -42.238914 0.000000 0.000000 0.000000 4.058966 -9.449839 -1.525181 -23.599087 7.509083 14.236653 16.954660 -13.739791 18.071344 -3.521967 9.154817 6.304141 11.829006 -14.120546 -94.404663 -23.405516 14.566326 30.955002 -4.806438 17.372416 -9.099574 3.089181 -14.089146 8.026228 -26.098530 111.936165 -93.886963 66.442635 1.432712 53.654346 34.230965 -9.448308 -7.957298 -55.773411 28.355103 1.236243 62.938309 -3.062276 -39.609276 0.759447 -0.205699 3.017751 -65.384560 -33.512424 -0.457123 95.347771 -13.280727 -1.521266 -9.136023 0.066010 -0.798104 
28.231239 37.436581 61.936878 4.867132 16.473736 -42.499001 0.000000 0.000000 0.000000 4.205186 -11.944385 -3.234944 -23.307619 7.343071 14.388965 15.573090 -12.898437 18.218681 -3.521967 9.154817 6.304141 14.529084 -12.282064 -91.259705 -23.397478 15.366992 31.851719 -2.974728 16.346531 -8.920360 3.089181 -14.089146 8.026228 -32.207905 109.240227 -101.833832 72.522438 3.328038 49.704395 34.572815 -10.526287 -8.367658 -56.476990 28.355608 0.682383 62.399216 -2.759789 -40.676514 1.864205 -0.044214 0.316223 -68.409309 -34.536152 -1.910262 93.735672 -13.027202 -7.731869 -8.738226 -0.156237 0.679636 
27.612913 37.563904 61.319595 4.484313 15.015710 -42.654285 0.000000 0.000000 0.000000 5.190926 -13.609736 -5.115717 -22.586046 7.464312 15.004162 15.534140 -12.569690 18.776138 -3.521967 9.154817 6.304141 16.636131 -10.839997 -86.771790 -23.329981 16.395613 32.184307 -4.122734 15.419846 -8.864734 3.089181 -14.089146 8.026228 -38.939301 106.871483 -109.328011 76.469704 3.770589 45.132687 34.439331 -11.111829 -8.611235 -54.698326 29.594864 0.333476 60.192291 -2.292021 -40.758064 2.499721 -0.013133 -0.905869 -66.239540 -34.208710 -3.178493 90.904533 -12.343414 -3.755116 -6.276746 -0.121650 0.660725 
26.679152 37.846020 60.435440 4.268609 13.552372 -42.210331 0.000000 0.000000 0.000000 5.579948 -13.191425 -6.411424 -21.905695 7.081020 15.452973 14.945002 -12.413795 19.004354 -3.521967 9.154817 6.304141 16.454290 -10.655233 -85.671944 -23.332064 16.399828 32.763248 -5.672878 15.322442 -8.894379 3.089181 -14.089146 8.026228 -39.657333 104.750275 -110.690971 78.242226 3.813509 44.495514 35.316669 -11.495742 -8.761038 -52.251976 30.427496 -0.145336 56.188866 -1.422073 -39.791218 3.096428 0.021794 -2.680370 -62.502453 -33.940575 -4.421344 89.277206 -11.601629 4.112561 -4.187497 -0.013157 -0.302106 
25.534061 38.490391 59.289883 3.681460 11.961614 -40.446869 0.000000 0.000000 0.000000 5.705184 -9.634636 -6.578842 -20.734047 6.713241 15.165232 14.328626 -12.771874 18.680170 -3.521967 9.154817 6.304141 12.513133 -14.169670 -88.970131 -23.449511 15.366548 33.688732 -4.473083 17.104712 -9.055339 3.089181 -14.089146 8.026228 -27.809246 103.511040 -98.241180 74.708694 2.198924 44.805416 37.290653 -12.067744 -8.976958 -48.787144 30.057484 -0.787490 49.300491 -0.077217 -40.113968 5.197583 0.062969 -6.857987 -57.613541 -34.313705 -6.793148 88.006989 -10.751711 10.874673 -3.248590 0.084090 -1.401253 
23.971636 39.471401 57.684570 4.201787 10.077285 -38.090736 0.000000 0.000000 0.000000 4.798287 -3.715403 -3.063499 -21.240875 6.311468 13.678322 16.319590 -11.970303 16.839844 -3.521967 9.154817 6.304141 6.498088 -23.036858 -92.865639 -23.658888 15.100595 33.655685 -3.512799 18.835062 -9.188413 3.089181 -14.089146 8.026228 -10.139137 103.639671 -82.356209 67.684616 0.019017 48.177685 37.535988 -12.687030 -9.251341 -44.982170 31.166603 -0.524703 38.375484 1.410106 -42.544140 9.419971 -0.423591 -16.255280 -53.609058 -33.043083 -11.091059 86.703278 -9.353223 15.379709 1.572572 0.013828 -0.545666 
22.047518 40.781693 55.599735 3.787255 8.351029 -35.837696 0.000000 0.000000 0.000000 4.218456 -1.092164 3.086493 -21.600868 5.579465 11.020535 18.050920 -10.419741 13.805257 -3.521967 9.154817 6.304141 -6.210940 -33.595787 -90.547478 -39.195236 7.117677 36.660698 -4.344249 20.479198 -9.409765 3.089181 -14.089146 8.026228 -1.386414 101.968246 -78.295929 60.360535 -1.891013 50.796696 36.538258 -13.020363 -9.375134 -36.757084 33.251213 4.279286 20.182388 1.080433 -44.395451 15.997667 -2.758364 -32.392956 -51.522118 -30.692244 -13.392677 85.385216 -8.610821 18.839359 9.381086 0.085755 2.080915 
20.115582 41.845146 53.353470 3.741289 8.325634 -31.183830 0.000000 0.000000 0.000000 3.322797 -2.477518 5.796137 -22.024513 4.752080 8.506269 19.084406 -9.320677 11.005270 -3.521967 9.154817 6.304141 -19.723051 -40.355808 -77.881264 -57.597973 -0.804318 34.911892 2.275981 19.646000 -8.871769 3.089181 -14.089146 8.026228 18.350122 97.684441 -65.283005 55.462948 -2.128552 52.529915 36.071983 -13.346032 -9.511343 -34.070141 32.897758 7.741901 6.775300 -0.128877 -34.569538 24.494572 -8.621883 -50.892952 -52.444359 -28.588556 -9.962898 85.017632 -9.119966 24.206106 9.798820 0.078126 1.741835 
18.353909 42.630428 50.897846 5.285107 8.723052 -21.202963 0.000000 0.000000 0.000000 2.311632 -3.060004 3.706313 -24.300480 3.699515 6.126328 20.095531 -8.748048 8.240734 -3.521967 9.154817 6.304141 -34.787266 -47.705460 -62.040985 -70.181541 -4.887305 32.881836 3.811730 18.579659 -8.741599 3.089181 -14.089146 8.026228 90.090553 96.191437 0.233805 50.621017 -2.443928 52.840240 36.024845 -13.426795 -9.550366 -40.876099 28.747688 6.061744 7.344030 -1.272849 -19.556087 28.213074 -10.326857 -50.163513 -53.231327 -28.329548 -5.638918 82.580475 -10.611993 15.809434 4.004242 0.006702 0.837207 
